# xmcd
#
# Track frame offsets: 
#        150
#        18202
#        42957
#        65065
#        81995
#        97200
#        111262
#        127755
#        143320
#        161245
#        176372
#        200662
#        218027
#        236017
#
# Disc length: 3400 seconds
#
# Revision: 0
# Processed by: cddbd v1.5.2PL0 Copyright (c) Steve Scherf et al.
# Submitted via: ExactAudioCopyFreeDBPlugin 1.0
#
DISCID=c10d460e
DTITLE=陈淑桦 - 往日情怀
DYEAR=1991
DGENRE=Pop
TTITLE0=别说可惜
TTITLE1=明天还爱我吗
TTITLE2=亚瑟潘的四个朋友
TTITLE3=等待风起
TTITLE4=海洋之歌
TTITLE5=HOLD ME NOW
TTITLE6=SUKIYAKI
TTITLE7=CELLO 
TTITLE8=EBONY EYES
TTITLE9=I DONT'T REMEMBER
TTITLE10=WHO'S LEAVING WHO
TTITLE11=就让它吧
TTITLE12=皇帝与公主
TTITLE13=无尽的爱
EXTD=
EXTT0=
EXTT1=
EXTT2=
EXTT3=
EXTT4=
EXTT5=
EXTT6=
EXTT7=
EXTT8=
EXTT9=
EXTT10=
EXTT11=
EXTT12=
EXTT13=
PLAYORDER=
